<?xml version="1.0" encoding="UTF-8"?>
<svg width="320" height="220" viewBox="0 0 320 220" fill="none" xmlns="http://www.w3.org/2000/svg">
  <title>Hnuter T tiltrotor</title>
  <rect width="320" height="220" rx="18" fill="#202124"/>
  <g stroke="#DDE7F0" stroke-width="8" stroke-linecap="round" stroke-linejoin="round">
    <path d="M160 34V176"/>
    <path d="M72 80H248"/>
    <path d="M160 176L118 198"/>
    <path d="M160 176L202 198"/>
  </g>
  <g fill="#8FD3FF" stroke="#DDE7F0" stroke-width="5">
    <circle cx="72" cy="80" r="27"/>
    <circle cx="248" cy="80" r="27"/>
    <circle cx="160" cy="176" r="24"/>
  </g>
  <g stroke="#202124" stroke-width="5" stroke-linecap="round">
    <path d="M72 53V107"/>
    <path d="M45 80H99"/>
    <path d="M248 53V107"/>
    <path d="M221 80H275"/>
    <path d="M160 152V200"/>
    <path d="M136 176H184"/>
  </g>
  <g stroke="#FFB86B" stroke-width="5" stroke-linecap="round" stroke-linejoin="round">
    <path d="M86 112L108 132"/>
    <path d="M234 112L212 132"/>
    <path d="M139 143L122 126"/>
    <path d="M181 143L198 126"/>
  </g>
  <g fill="#DDE7F0">
    <path d="M160 24L172 46H148L160 24Z"/>
    <circle cx="160" cy="114" r="12"/>
  </g>
</svg>
